name rise30.3154peak39.0474fall46.5389.mot
datacolumns 19
datarows 24
range 0.69166400000000 0.73500000000000
endheader
time	ground_force1_vx	ground_force1_vy	ground_force1_vz	ground_force1_px	ground_force1_py	ground_force1_pz	ground_force2_vx	ground_force2_vy	ground_force2_vz	ground_force2_px	ground_force2_py	ground_force2_pz	ground_torque1_x	ground_torque1_y	ground_torque1_z	ground_torque2_x	ground_torque2_y	ground_torque2_z	
0.69166400000000	-4.68520900000000	693.91294300000004	41.82852200000000	0.17699200000000	0.00000000000000	0.10754700000000	0.00000000000000	0.00000000000000	0.00000000000000	0.00000000000000	0.00000000000000	0.00000000000000	0.00000000000000	16.17485700000000	0.00000000000000	0.00000000000000	0.00000000000000	0.00000000000000	
0.69334100000000	-5.18124800000000	694.37342599999999	41.85985300000000	0.17622700000000	0.00000000000000	0.10746600000000	0.00000000000000	0.00000000000000	0.00000000000000	0.00000000000000	0.00000000000000	0.00000000000000	0.00000000000000	16.25022300000000	0.00000000000000	0.00000000000000	0.00000000000000	0.00000000000000	
0.69500000000000	-5.69898700000000	694.90807900000004	41.90058700000000	0.17544400000000	0.00000000000000	0.10738700000000	0.00000000000000	0.00000000000000	0.00000000000000	0.00000000000000	0.00000000000000	0.00000000000000	0.00000000000000	16.33324100000000	0.00000000000000	0.00000000000000	0.00000000000000	0.00000000000000	
0.69666600000000	-6.23920700000000	695.51876500000003	41.95072700000000	0.17464100000000	0.00000000000000	0.10731000000000	0.00000000000000	0.00000000000000	0.00000000000000	0.00000000000000	0.00000000000000	0.00000000000000	0.00000000000000	16.42390100000000	0.00000000000000	0.00000000000000	0.00000000000000	0.00000000000000	
0.69835100000000	-6.80260500000000	696.20727699999998	42.01027200000000	0.17381600000000	0.00000000000000	0.10723600000000	0.00000000000000	0.00000000000000	0.00000000000000	0.00000000000000	0.00000000000000	0.00000000000000	0.00000000000000	16.52218000000000	0.00000000000000	0.00000000000000	0.00000000000000	0.00000000000000	
0.70000400000000	-7.38978900000000	696.97534099999996	42.07922200000000	0.17296900000000	0.00000000000000	0.10716500000000	0.00000000000000	0.00000000000000	0.00000000000000	0.00000000000000	0.00000000000000	0.00000000000000	0.00000000000000	16.62804400000000	0.00000000000000	0.00000000000000	0.00000000000000	0.00000000000000	
0.70167200000000	-8.00127500000000	697.82459500000004	42.15757200000000	0.17209800000000	0.00000000000000	0.10709600000000	0.00000000000000	0.00000000000000	0.00000000000000	0.00000000000000	0.00000000000000	0.00000000000000	0.00000000000000	16.74145000000000	0.00000000000000	0.00000000000000	0.00000000000000	0.00000000000000	
0.70333800000000	-8.63748100000000	698.75658699999997	42.24531500000000	0.17120200000000	0.00000000000000	0.10703000000000	0.00000000000000	0.00000000000000	0.00000000000000	0.00000000000000	0.00000000000000	0.00000000000000	0.00000000000000	16.86233800000000	0.00000000000000	0.00000000000000	0.00000000000000	0.00000000000000	
0.70499800000000	-9.29872400000000	699.77276199999994	42.34244400000000	0.17028100000000	0.00000000000000	0.10696800000000	0.00000000000000	0.00000000000000	0.00000000000000	0.00000000000000	0.00000000000000	0.00000000000000	0.00000000000000	16.99063800000000	0.00000000000000	0.00000000000000	0.00000000000000	0.00000000000000	
0.70666500000000	-9.98521700000000	700.87445200000002	42.44894400000000	0.16933400000000	0.00000000000000	0.10690800000000	0.00000000000000	0.00000000000000	0.00000000000000	0.00000000000000	0.00000000000000	0.00000000000000	0.00000000000000	17.12626800000000	0.00000000000000	0.00000000000000	0.00000000000000	0.00000000000000	
0.70833200000000	-10.69707000000000	702.06286799999998	42.56479800000000	0.16836200000000	0.00000000000000	0.10685200000000	0.00000000000000	0.00000000000000	0.00000000000000	0.00000000000000	0.00000000000000	0.00000000000000	0.00000000000000	17.26913000000000	0.00000000000000	0.00000000000000	0.00000000000000	0.00000000000000	
0.71500100000000	-11.43428200000000	703.33909100000005	42.68998500000000	0.16736400000000	0.00000000000000	0.10679900000000	0.00000000000000	0.00000000000000	0.00000000000000	0.00000000000000	0.00000000000000	0.00000000000000	0.00000000000000	17.41911200000000	0.00000000000000	0.00000000000000	0.00000000000000	0.00000000000000	
0.71666800000000	-12.19674300000000	704.70405700000003	42.82447900000000	0.16634200000000	0.00000000000000	0.10674900000000	0.00000000000000	0.00000000000000	0.00000000000000	0.00000000000000	0.00000000000000	0.00000000000000	0.00000000000000	17.57608800000000	0.00000000000000	0.00000000000000	0.00000000000000	0.00000000000000	
0.71833300000000	-12.98423400000000	706.15855399999998	42.96824500000000	0.16529500000000	0.00000000000000	0.10670200000000	0.00000000000000	0.00000000000000	0.00000000000000	0.00000000000000	0.00000000000000	0.00000000000000	0.00000000000000	17.73991800000000	0.00000000000000	0.00000000000000	0.00000000000000	0.00000000000000	
0.71999700000000	-13.79642300000000	707.70320800000002	43.12124600000000	0.16422500000000	0.00000000000000	0.10665900000000	0.00000000000000	0.00000000000000	0.00000000000000	0.00000000000000	0.00000000000000	0.00000000000000	0.00000000000000	17.91044400000000	0.00000000000000	0.00000000000000	0.00000000000000	0.00000000000000	
0.72166900000000	-14.63287000000000	709.33847600000001	43.28343600000000	0.16313400000000	0.00000000000000	0.10661900000000	0.00000000000000	0.00000000000000	0.00000000000000	0.00000000000000	0.00000000000000	0.00000000000000	0.00000000000000	18.08749500000000	0.00000000000000	0.00000000000000	0.00000000000000	0.00000000000000	
0.72335100000000	-15.49302300000000	711.06463499999995	43.45476200000000	0.16202200000000	0.00000000000000	0.10658200000000	0.00000000000000	0.00000000000000	0.00000000000000	0.00000000000000	0.00000000000000	0.00000000000000	0.00000000000000	18.27088200000000	0.00000000000000	0.00000000000000	0.00000000000000	0.00000000000000	
0.72499600000000	-16.37622100000000	712.88177700000006	43.63516200000000	0.16089100000000	0.00000000000000	0.10654800000000	0.00000000000000	0.00000000000000	0.00000000000000	0.00000000000000	0.00000000000000	0.00000000000000	0.00000000000000	18.46040200000000	0.00000000000000	0.00000000000000	0.00000000000000	0.00000000000000	
0.72666500000000	-17.28169700000000	714.78979500000003	43.82456800000000	0.15974300000000	0.00000000000000	0.10651700000000	0.00000000000000	0.00000000000000	0.00000000000000	0.00000000000000	0.00000000000000	0.00000000000000	0.00000000000000	18.65583200000000	0.00000000000000	0.00000000000000	0.00000000000000	0.00000000000000	
0.72835100000000	-18.20857600000000	716.78837899999996	44.02290100000000	0.15858100000000	0.00000000000000	0.10649000000000	0.00000000000000	0.00000000000000	0.00000000000000	0.00000000000000	0.00000000000000	0.00000000000000	0.00000000000000	18.85693700000000	0.00000000000000	0.00000000000000	0.00000000000000	0.00000000000000	
0.73000300000000	-19.15588300000000	718.87700800000005	44.23007400000000	0.15740600000000	0.00000000000000	0.10646500000000	0.00000000000000	0.00000000000000	0.00000000000000	0.00000000000000	0.00000000000000	0.00000000000000	0.00000000000000	19.06346200000000	0.00000000000000	0.00000000000000	0.00000000000000	0.00000000000000	
0.73167100000000	-20.12254200000000	721.05494199999998	44.44598900000000	0.15622100000000	0.00000000000000	0.10644300000000	0.00000000000000	0.00000000000000	0.00000000000000	0.00000000000000	0.00000000000000	0.00000000000000	0.00000000000000	19.27513500000000	0.00000000000000	0.00000000000000	0.00000000000000	0.00000000000000	
0.73335000000000	-21.10738100000000	723.32121500000005	44.67054100000000	0.15502800000000	0.00000000000000	0.10642400000000	0.00000000000000	0.00000000000000	0.00000000000000	0.00000000000000	0.00000000000000	0.00000000000000	0.00000000000000	19.49167000000000	0.00000000000000	0.00000000000000	0.00000000000000	0.00000000000000	
0.73500000000000	-22.10913700000000	725.67462899999998	44.90361000000000	0.15383000000000	0.00000000000000	0.10640700000000	0.00000000000000	0.00000000000000	0.00000000000000	0.00000000000000	0.00000000000000	0.00000000000000	0.00000000000000	19.71276100000000	0.00000000000000	0.00000000000000	0.00000000000000	0.00000000000000	
